<?xml version="1.0" encoding="UTF-8"?>
<svg id="Layer_1" xmlns="http://www.w3.org/2000/svg" version="1.1" viewBox="0 0 648 756">
  <!-- Generator: Adobe Illustrator 30.0.0, SVG Export Plug-In . SVG Version: 2.1.1 Build 123)  -->
  <defs>
    <style>
      .st0 {
        fill: #e8eae6;
      }

      .st1 {
        fill: #fff;
      }

      .st2 {
        fill: #0a0b0b;
      }

      .st3 {
        fill: #fdfdfc;
      }

      .st4 {
        fill: #046fb1;
      }
    </style>
  </defs>
  <path class="st1" d="M470.35,669.29c42.68-24.93,86.34-48.89,128.73-74.33,13.76-8.26,25.02-13.56,34.16-27.61,10.59-16.27,7.37-52.73,7.33-72.46-.19-91.04.07-182.22-.69-273.96-.19-23.51-6.15-37.88-26.15-51.15-88.78-51.96-177.22-104.55-266.27-156.01-15.02-6.22-29.25-6.03-44.43-.58C219.27,62.3,134.31,109.88,51.26,160.29c-24.16,14.67-40.59,24.31-42.54,55.82.63,111.2-1.14,222.6.89,333.69,3.14,15.17,11.43,26.7,24.13,35.25,17.78,11.97,39.47,23.14,58.21,34.16,50.09,29.46,100.68,58.56,150.91,87.7,16.8,9.75,34.15,21.28,51.29,30.41,38.52,20.51,58.64,1.54,90.98-17.4,28.37-16.62,56.93-34.1,85.22-50.62ZM170.74,85.14c-.65-.65-1.85.54-1.19,1.19s1.85-.54,1.19-1.19ZM281.74,741.02c-.65-.65-1.85.54-1.19,1.19s1.85-.54,1.19-1.19Z"/>
  <path class="st3" d="M0,218.23v-3.6c3.03.53,3.14,3.01,0,3.6Z"/>
  <path class="st3" d="M171,85.14c.65.65-.54,1.85-1.19,1.19s.54-1.85,1.19-1.19Z"/>
  <path class="st3" d="M282,741.02c.65.65-.54,1.85-1.19,1.19s.54-1.85,1.19-1.19Z"/>
  <path class="st4" d="M197.4,189.45c3.51-6.03,6.93-11.92,14.68-12.61l174.02.03c4.57-.93,14.11,8.03,14.11,11.68v60.85l-13.2-.6v-53.06c0-.83-1.13-5.1-2.1-5.1h-172.2c-.5,0-1.06,1.45-.93,2.07.2,83.89-.47,166.56,0,250.07-.36,1.83,2.76,3.09,4.1,3.16.91.05,1.45-.5,1.64-.5h168c3.28,0-.3-15.9,1.46-17.12.9-.63,12.69-.16,13.21.36.77,2.44,0,4.68,0,6.84.02,11.96,0,22.05-14.68,23.7h-172.78c-6.91-.68-11.54-4.94-14.71-10.78-.03-.19.02-.4,0-.6-.12-1.23-.13-2.43-.6-3.6.02-.4-.01-.8,0-1.2,2.43-82.1-1.58-164.83,0-247,0-.4,0-.8,0-1.2.01-.6-.02-1.2,0-1.8.04-1.19-.08-2.41,0-3.6Z"/>
  <path class="st4" d="M447.6,258.99c-1.63-6.67-1.14-13.58-1.2-20.39-8.95,1.13-18.16-2.79-20.86-11.83.75-14.36-1.5-30.71-.17-44.84.6-6.34,7.23-12.23,13.53-12.86,22.11-2.22,47.74,1.67,70.22-.04,12.08,2.62,14.51,9.27,14.7,20.74.17,10.68.82,24.92-.02,35.34-1.66,20.55-35.52,11.4-48.79,13.61l-26.22,20.26c-.39.04-.8-.02-1.2,0ZM448.03,197.36c-8.16,1.8-4.72,17.03,4.78,11.99,6.49-3.44,2.17-13.53-4.78-11.99ZM472.64,197.38c-7.93,1.62-6.27,13.82,2.19,13.03,10.05-.94,6.6-14.83-2.19-13.03ZM503.79,198.66c-5.25-4.77-13.82,1.74-10.24,8.13,4.88,8.69,18.39-.72,10.24-8.13Z"/>
  <path class="st4" d="M418.8,516.79c.46,2.24.72,4.81,1.2,7.19,0,3.59,0,7.2,0,10.79,0,.4,0,.8,0,1.2-1.98,8.38-5.98,15.69-14.97,17.71-2.8.63-4.66.21-7.23.27-.4.01-.8-.01-1.2,0-4.46-.14-7.02-3.84-10.8-4.79l.6,22.78c-.16.05-.39-.03-.6,0-3.33.42-7.37-.3-10.8,0-1.91-.73-.65-.39-1.2-1.2l.9-65.35h10.8c1.73,0-.08,5.27,1.79,4.8.15-.04,1.36-1.93,1.98-2.36,8.43-5.9,19.9-4.82,26.17,3.61,1.35,1.81,1.81,3.9,3.35,5.34ZM395.87,515.13c-9.1.98-10.28,12.05-9.4,19.28.85,7.02,5.89,10.29,12.78,9.3,11.14-1.6,11.66-30.2-3.38-28.58Z"/>
  <path class="st4" d="M357,249.4c-37.03,2.32-76.42-1.74-113.7,0-10.07-1.09-10.89-12.52-1.2-14.39l114.92.28c3.84,1.54,6.32,4.93,4.92,9.15-.87,2.64-3.06,2.8-3.74,4.96-.38.05-.81-.02-1.2,0Z"/>
  <path class="st4" d="M474,535.97c-.06.58.08,1.23,0,1.8-4.26,9.92-9.36,15.88-20.71,16.78-19.19,1.52-29.08-10.48-27.29-29.06,2.59-26.79,42.35-29.6,47.83-2.84,1,4.87.7,8.49.17,13.32ZM446.84,515.13c-10.34,1.88-11.75,26.82,1.11,28.58,12.42,1.71,14.83-10.74,12.58-20.36-1.7-7.26-6.44-9.54-13.69-8.22Z"/>
  <path class="st4" d="M366.6,531.78c-.13.28-.54.46-.6.6h-31.8c-.41,8.45,6.94,14.48,15.14,11.23,2.88-1.14,4.14-4.59,4.46-4.66,3.01-.73,8.82.58,12.2.03-.07.35.04.81,0,1.2-.02.2.03.4,0,.6s.03.41,0,.6c-5.59,12.45-19.02,15.81-31.36,11.26-19.97-7.37-17.19-45.19,5.42-48.27,17.6-2.4,28.13,10.67,26.54,27.42ZM334.2,524.58h18.3c2.62,0-.94-7.08-2.29-8.2-6.69-5.58-16.03-.06-16.01,8.2Z"/>
  <path class="st2" d="M173.4,487.41v23.98l3.05-3.24c8.33-6.1,21.43-5.1,25.86,5.23.41.95,1.69,4.8,1.69,5.51v34.47h-9v-32.67c0-.2-.78-3.5-.93-3.87-2.59-6.4-13.8-5.24-17.67-.33-.87,1.11-3,6.06-3,7.19v29.68c-2.88.45-5.67-.95-8.4,0v-65.95h8.4Z"/>
  <path class="st2" d="M95.4,505.4h8.4v47.96c-5.42-.16-8.86,1.78-7.81-5.4-6.79,8.2-23.6,9.51-28.63-1.06-.33-.7-1.96-5.46-1.96-5.83v-35.67c1.83.37,8.29-.93,8.92.98,1,10.28-1.05,22.23.08,32.29.31,2.8,2.22,7.29,5.23,7.97,3.86.86,9.09.07,11.84-2.91,1.58-1.71,3.94-7.03,3.94-9.26v-29.08Z"/>
  <path class="st2" d="M154.2,553.36c-3.01-.47-5.38-.88-8.4,0-.85-4.02-.68-8.2-.63-12.32.09-6.81.77-14.07.03-20.96-.8-7.47-7.84-8.9-14.14-6.93-2.64.83-6.87,6.31-6.87,8.73v31.48c-2.83-.86-5.56-.86-8.4,0l-.34-47.4c.58-.83,6.79-.84,7.58-.3,1.39.97-.41,5.91,1.45,5.13.87-.36,2.74-3.02,3.95-3.85,5.7-3.91,18.02-3.24,22.42,2.7,1.08,1.46,3.34,7.03,3.34,8.65v35.07Z"/>
  <path class="st2" d="M252.6,522.19c-1.84-.35-7.21.6-8.44-.27-.55-.38-1.13-4.23-2.09-5.7-2.73-4.17-9.04-4.87-13.46-3.32-12.67,4.44-10.11,41.35,9.14,33.12,4.69-2.01,4.8-6.31,6.83-9.96l8.03-.08c-.27,14.4-14.76,21.92-27.74,17.22-15.43-5.58-17.05-32.08-6.48-42.72,11.77-11.86,34.18-6.57,34.22,11.71Z"/>
  <path class="st4" d="M302.4,505.4l.3,7.79c2.74-5.91,9.28-11.05,15.94-8.02-1.09,3.96-.81,8.21-.04,12.21-3.42.11-6.86-.55-10.02,1.08-1.77.91-5.58,5.11-5.58,7.01v26.98c0,.06-.84.9-.9.9h-11.7l-.45-47.09c.11-.64.78-.79,1.35-.88,2.78-.42,7.46-.02,10.5,0,.2,0,.4,0,.6,0Z"/>
  <path class="st4" d="M482.4,539.57c.45-10.07-1.17-22.42-.03-32.11.07-.6.27-2.07.93-2.07h10.8c1.4,0,.09,5.39.3,6.91.4,2.92,2.66-2.39,3.35-3.26,3.62-4.53,7.3-4.45,12.85-4.25v11.99c-6.68.36-14.24,1.11-15.03,9.26-.76,7.85.27,17.38.03,25.51-.02.6.03,1.2,0,1.8-3.3-.58-9.31.78-12.21,0-.67-.18-.32-1.14-.4-1.21-1.14-3.58,1.1-7.4-.6-10.79.04-.6-.03-1.2,0-1.8Z"/>
  <path class="st0" d="M241.04,271.73c-8.5,2.68-6.4,12.72,2.26,13.65,25.79-.36,51.78.73,77.45-.56,6.52-3.52,5.34-11.68-1.83-13.25l-77.87.16Z"/>
  <path class="st2" d="M259.8,505.4c7.89-.16,8.78-1.39,8.7,7.2,3.31-6.49,7.98-8.85,15.3-7.8-.32,1.82.69,7.78-.59,8.75-.25.19-4.9.11-6.16.41-14.62,3.45-5.99,29.09-8.86,39.42-2.72-.96-5.52.45-8.4,0v-47.96Z"/>
  <path class="st0" d="M241.64,307.69c-7.73,1.41-7.65,12.08-.1,13.61,18.42-1.44,40.13,2.05,58.16.04,9.14-1.02,8.24-12.57.56-13.75l-58.62.1Z"/>
  <path class="st4" d="M483.25,553.29c-.08-.09-.81.19-1.06-.12-.3-.39-.26-8.78-.17-10.2.06-.86.62-1.51.62-1.6,1.7,3.74-.54,7.97.6,11.92Z"/>
  <path class="st0" d="M385.8,571.95c-2.94.97-8.03,1.05-10.8,0,3.43-.3,7.47.42,10.8,0Z"/>
  <path class="st0" d="M198,447.84c-2.43-.88-.63-2.93-.6-3.6.47,1.17.48,2.36.6,3.6Z"/>
  <path class="st0" d="M197.4,193.05c-.02.6.01,1.2,0,1.8-1.79.53-1.91-2.26,0-1.8Z"/>
  <path class="st0" d="M366,540.77c.03-.2-.02-.4,0-.6v.6Z"/>
  <path class="st3" d="M205.2,176.26c.65.65-.54,1.85-1.19,1.19s.54-1.85,1.19-1.19Z"/>
  <path class="st4" d="M409.98,277.4c.46.51,11.36,5.62,12.4,5.89,7.55,1.95,13.32-9.44,19.52-5.11,1.23.86,10.2,9.33,11.1,10.49,6.77,8.72-5.84,13.72-4.69,19.63.21,1.06,3.49,8.86,4.16,10.27,3.65,7.58,6.93,4.62,13.45,6.94,3.08,1.09,4.15,1.85,4.46,5.13.31,3.21.64,14.5-.13,17.25-2.07,7.36-13.39,4.22-16,7.99-.87,1.26-4.71,10.22-5.33,12.06-1.85,5.5,3.08,7.94,5.18,12.53,1.25,2.74,1.93,3.89.07,6.52-1.49,2.1-10.13,11.47-12.03,12.56-7.08,4.05-11.91-6.31-19.21-4.8-1.18.24-12.54,4.76-13.01,5.27-2.23,2.4-1.73,14.13-5.56,15.73-.62.26-8.07.96-9.29.96-2.26,0-7.78-.46-10.04-.81-7.68-1.18-5.02-11.41-8.88-16.31-3.8-.02-11-5.7-13.98-5.54-3.71.19-8.3,5.23-11.77,6.13-7.4,1.93-13.52-9.85-18.65-13.77-3.17-5.46,7.63-11.65,6.97-16.55-2.33-3.27-4.86-12.43-7.51-14.7-3.67-3.15-14.71-.29-15.65-8.34-.43-3.68-.43-15.64,1.3-18.51,2.99-4.93,11.67-2.49,15.17-5.83,1.1-1.04,5.55-11.28,6.06-13.13,1.76-6.45-8.53-10.14-6.05-18.04.51-1.64,13.07-13.13,14.9-13.91.96-.41,1.2-.45,2.23-.19,3.21.81,10.71,6.91,12.9,6.9.76,0,13.29-5.05,14.07-5.68,3.77-3.01,1.44-14.02,7.39-16,2.59-.86,15.59-.85,18.75-.47,7.01.83,4.12,11.54,7.67,15.42ZM374.4,378.9c.2.02.4,0,.6,0,7.47,4.23,17.6,5.25,26.04,4.14,1.2-.16,2.81-.49,3.36-1.74,4.78-1.05,7.83-2.4,12-4.8,29.81-17.12,26.92-60.83-2.81-76.63-41.54-22.08-83.58,30.31-55.04,66.39,2.39,3.02,12.33,12.23,15.85,12.64Z"/>
  <path class="st4" d="M556.8,538.97c-.05,7.25,15.4,7.77,17.55,2.85,1.4-3.21-.11-4.11-2.73-5.36-8.63-4.11-24.13-2.07-26.07-14.12-3.7-23.05,39.46-25.03,40.05-2.55h-11.4c-.24,0-.88-3.08-2.25-4.21-2.23-1.82-11.48-2.62-13.23-1.07-.17.16-1.25,3.49-1.09,4.1.44,1.62,2.77,2.51,4.24,3.01,8.01,2.73,23.76,3.02,25.37,14.22,1.7,11.83-6.73,17.86-17.55,18.72-12.61,1-24.71-2.52-26.09-16.77h12c.03.14.93.96,1.2,1.2Z"/>
  <path class="st4" d="M531.6,505.4h8.4v8.69c0,1.51-7,.72-8.4.9.63,8.17-.82,17.49-.03,25.52.58,5.89,5.56,1.97,7.75,3.35.77.48.97,7.98.71,9.11-.31,1.33-7.32,1.11-8.75,1.03-6.59-.36-11.64-1.89-12.3-9.3-.84-9.45.67-20.12.03-29.7-1.2-.08-6.6.48-6.6-.9v-8.69h6.6v-12.29c0-.06.84-.9.9-.9h10.8c.06,0,.9.84.9.9v12.29Z"/>
  <path class="st4" d="M241.04,271.73l77.87-.16c7.17,1.57,8.35,9.73,1.83,13.25-25.67,1.29-51.66.19-77.45.56-8.65-.93-10.76-10.96-2.26-13.65Z"/>
  <path class="st4" d="M241.64,307.69l58.62-.1c7.68,1.18,8.58,12.73-.56,13.75-18.03,2.01-39.74-1.48-58.16-.04-7.55-1.53-7.63-12.21.1-13.61Z"/>
  <path class="st4" d="M404.4,381.3c-.55,1.25-2.16,1.59-3.36,1.74-8.44,1.11-18.57.09-26.04-4.14,6.15.27,5.91,1.27,11.28,2.82s12.64.78,18.12-.42Z"/>
  <path class="st4" d="M414.6,333.34c4.21,2.64,5.32,3.22,4.2,8.39-1.73.54-1.79,2.04-2.4,3-2.89.74-3.4,2.17-6,3.6-.39.21-.8.37-1.2.6-6.55,3.71-15,7.98-21.15,12.01-.84.55-2.27,2.39-3.45,2.98-3.12.38-2.82,1.31-6-.6-1.37-13.77-.22-27.82-.58-41.69-.03-1.33-.54-2.56-.62-3.87-.01-.2,0-.4,0-.6,4.91-5.28,7.5-1.13,11.67,1.23,8.48,4.79,17.2,9.75,25.53,14.96Z"/>
</svg>